<?xml version="1.0" encoding="UTF-8"?><!DOCTYPE svg PUBLIC "-//W3C//DTD SVG 1.1//EN" "http://www.w3.org/Graphics/SVG/1.1/DTD/svg11.dtd"><svg xmlns="http://www.w3.org/2000/svg"><defs><clipPath id="a"><path d="M0 0h195v182H0z"/></clipPath></defs><symbol id="arrow-down" viewBox="0 0 24 24"><path d="M20.707 8.707l-1.414-1.414L12 14.586 4.707 7.293 3.293 8.707 12 17.414z"/></symbol><symbol id="arrow-left" viewBox="0 0 24 24"><path d="M15.293 20.707l1.414-1.414L9.414 12l7.293-7.293-1.414-1.414L6.586 12z"/></symbol><symbol id="arrow-right" viewBox="0 0 24 24"><path d="M8.707 20.707l-1.414-1.414L14.586 12 7.293 4.707l1.414-1.414L17.414 12z"/></symbol><symbol id="arrow-up" viewBox="0 0 24 24"><path d="M20.707 15.293l-1.414 1.414L12 9.414l-7.293 7.293-1.414-1.414L12 6.586z"/></symbol><symbol id="book-download" viewBox="0 0 24 24"><g><path d="M12 18.001H6v-16h10v10h2v-11a1 1 0 0 0-1-1H1a1 1 0 0 0-1 1v18a1 1 0 0 0 1 1h11v-2zm-8 0H2v-16h2v16zM22.293 17.294L20 19.587v-5.586h-2v5.586l-2.293-2.293-1.414 1.414L19 23.415l4.707-4.707z"/></g></symbol><symbol id="camera" viewBox="0 0 24 24"><g><path d="M12 7.999c-2.757 0-5 2.243-5 5 0 2.758 2.243 5 5 5s5-2.242 5-5-2.243-5-5-5zm0 8c-1.654 0-3-1.346-3-3s1.346-3 3-3 3 1.346 3 3-1.346 3-3 3z"/><path d="M20 5.999h-3.465L15.129 3.89a1.996 1.996 0 0 0-1.664-.891h-2.93c-.67 0-1.292.333-1.664.891L7.465 5.999H4c-1.103 0-2 .897-2 2v11c0 1.103.897 2 2 2h16c1.103 0 2-.897 2-2v-11c0-1.103-.897-2-2-2zm-16 13v-11h4.535l2-3h2.93l2 3H20l.001 11H4z"/></g></symbol><symbol id="cart" viewBox="0 0 24 24"><path d="M18 2c-.466 0-.869.321-.975.775L16.05 7H3a.999.999 0 0 0-.971 1.242l2 8c.112.446.512.758.971.758h10c.466 0 .869-.322.975-.775L18.795 4H22V2h-4z"/><circle cx="6" cy="20" r="2"/><circle cx="14" cy="20" r="2"/></symbol><symbol id="close" viewBox="0 0 24 24"><path d="M20.707 4.707l-1.414-1.414L12 10.586 4.707 3.293 3.293 4.707 10.586 12l-7.293 7.293 1.414 1.414L12 13.414l7.293 7.293 1.414-1.414L13.414 12"/></symbol><symbol id="doc" viewBox="0 0 24 24"><g><path d="M5 3h10v4h4v1h2V5.586L16.414 1H5c-1.103 0-2 .898-2 2v5h2V3zM19 21H5v-1H3v1c0 1.103.897 2 2 2h14c1.103 0 2-.897 2-2v-1h-2v1zM19 12h3v-2h-3c-1.654 0-3 1.346-3 3v2c0 1.654 1.346 3 3 3h3v-2h-3c-.551 0-1-.448-1-1v-2c0-.552.449-1 1-1zM8 14c0-2.206-1.794-4-4-4H2v8h2c2.206 0 4-1.794 4-4zm-4-2c1.103 0 2 .898 2 2 0 1.103-.897 2-2 2v-4zM9 13v2c0 1.654 1.346 3 3 3s3-1.346 3-3v-2c0-1.654-1.346-3-3-3s-3 1.346-3 3zm4 0v2a1.001 1.001 0 0 1-2 0v-2a1.001 1.001 0 0 1 2 0z"/></g></symbol><symbol id="email" viewBox="0 0 24 24"><path d="M12 10.823l8.965-5.563A1.977 1.977 0 0 0 20 5H4c-.352 0-.678.1-.965.26L12 10.823z"/><path d="M12.527 12.849a1 1 0 0 1-1.054.001l-9.47-5.877c0 .009-.003.018-.003.026v9c0 1.102.897 2 2 2h16c1.103 0 2-.898 2-2v-9l-.003-.027-9.47 5.877z"/></symbol><symbol id="facebook" viewBox="0 0 24 24"><path d="M13.5 7H16V4h-2.5C11.57 4 10 5.57 10 7.5V9H8v3h2v8h3v-8h2.5l.5-3h-3V7.5c0-.271.229-.5.5-.5z"/></symbol><symbol id="file" viewBox="0 0 24 24"><path d="M15.414 2H6c-1.103 0-2 .898-2 2v16c0 1.103.897 2 2 2h12c1.103 0 2-.897 2-2V6.586L15.414 2zM7 12h8v2H7v-2zm10 6H7v-2h10v2zM14 8V3l5 5h-5z"/></symbol><symbol id="flickr" viewBox="0 0 24 24"><path d="M7 16a4 4 0 1 1 0-8 4 4 0 0 1 0 8zm10 0a4 4 0 1 1 0-8 4 4 0 0 1 0 8z"/></symbol><symbol id="instagram" viewBox="0 0 24 24"><path d="M15.5 3h-7A5.5 5.5 0 0 0 3 8.5v7A5.5 5.5 0 0 0 8.5 21h7a5.5 5.5 0 0 0 5.5-5.5v-7A5.5 5.5 0 0 0 15.5 3zm4 12.5a4.005 4.005 0 0 1-4 4h-7a4.005 4.005 0 0 1-4-4v-7a4.005 4.005 0 0 1 4-4h7a4.005 4.005 0 0 1 4 4z"/><path d="M12 7.5a4.5 4.5 0 1 0 4.5 4.5A4.5 4.5 0 0 0 12 7.5zm0 7.5a3 3 0 1 1 3-3 3.003 3.003 0 0 1-3 3z"/><circle cx="16.7" cy="7.3" r="1"/></symbol><symbol id="linefile" viewBox="0 0 24 24"><g><path d="M7 10h3v2H7zM7 13h3v2H7zM7 16h3v2H7zM12 10h5v8h-5z"/><path d="M16.414 1H5c-1.103 0-2 .898-2 2v18c0 1.103.897 2 2 2h14c1.103 0 2-.897 2-2V5.586L16.414 1zM5 21V3h10v4h4l.001 14H5z"/></g></symbol><symbol id="link" viewBox="0 0 24 24"><path d="M2.809 16.226l2.121-2.122-.353-.352a.5.5 0 0 1 0-.708l8.486-8.486a.498.498 0 0 1 .707.001l.353.353 2.122-2.122-.355-.353c-1.322-1.323-3.628-1.322-4.95-.001l-8.485 8.486a3.475 3.475 0 0 0-1.025 2.475c0 .935.364 1.814 1.025 2.476l.354.353zM21.193 7.74l-2.121 2.121.354.354a.501.501 0 0 1 0 .706l-8.485 8.485a.5.5 0 0 1-.708.001l-.354-.354-2.121 2.122.354.353a3.477 3.477 0 0 0 2.475 1.025c.935 0 1.814-.364 2.475-1.025l8.486-8.485a3.504 3.504 0 0 0 0-4.949l-.355-.354zm-1.767-5.303l2.121 2.121-7.072 7.071-2.121-2.122zm-9.9 9.899l2.122 2.12-7.071 7.072-2.122-2.121z"/></symbol><symbol id="linkedin" viewBox="0 0 24 24"><path d="M3 7h4v11H3V7zm2-2a2 2 0 1 1 0-4 2 2 0 0 1 0 4zm11.5 1.25a4.5 4.5 0 0 1 4.5 4.5V18h-4v-7a2 2 0 1 0-4 0v7H9V7h4v.953a4.473 4.473 0 0 1 3.5-1.703z"/></symbol><symbol id="location" viewBox="0 0 24 24"><path d="M12 2a7 7 0 0 0-7 7c0 5 7 13 7 13s7-8 7-13a7 7 0 0 0-7-7zm0 9.5a2.5 2.5 0 1 1 0-5 2.5 2.5 0 0 1 0 5z"/></symbol><symbol id="menu" viewBox="0 0 20 15"><path d="M0 0h20v3H0V0zm0 6h20v3H0V6zm0 6h20v3H0v-3z"/></symbol><symbol id="pdf" viewBox="0 0 24 24"><g><path d="M5 3h10v4h4v1h2V5.586L16.414 1H5c-1.103 0-2 .898-2 2v5h2V3zM19 21H5v-1H3v1c0 1.103.897 2 2 2h14c1.103 0 2-.897 2-2v-1h-2v1zM9 10v8h2c2.206 0 4-1.794 4-4s-1.794-4-4-4H9zm4 4c0 1.103-.897 2-2 2v-4c1.103 0 2 .898 2 2zM22 12v-2h-4c-1.103 0-2 .898-2 2v6h2v-3h3v-2h-3v-1h4zM4 16h1c1.654 0 3-1.346 3-3s-1.346-3-3-3H2v8h2v-2zm0-4h1a1.001 1.001 0 0 1 0 2H4v-2z"/></g></symbol><symbol id="pen" viewBox="0 0 24 24"><path d="M20.831 8.863a4.031 4.031 0 0 0 0-5.693 4.03 4.03 0 0 0-5.692 0l-.009.008 5.701 5.685zm-7.116-4.271l-7.859 7.86 5.683 5.702 7.859-7.86zM9.318 18.75l-.347 1.734a1.002 1.002 0 0 1-.839.793l-4.992.714a.996.996 0 0 1-.848-.284.996.996 0 0 1-.283-.847l.713-4.991a1 1 0 0 1 .793-.84l1.734-.347 4.069 4.068z"/></symbol><symbol id="play" viewBox="0 0 24 24"><path d="M5 3.003v18l15-9z"/></symbol><symbol id="ppt" viewBox="0 0 24 24"><g><path d="M5 3h10v4h4v1h2V5.586L16.414 1H5c-1.103 0-2 .898-2 2v5h2V3zM19 21H5v-1H3v1c0 1.103.897 2 2 2h14c1.103 0 2-.897 2-2v-1h-2v1zM16 10v2h2v6h2v-6h2v-2zM4 16h1c1.654 0 3-1.346 3-3s-1.346-3-3-3H2v8h2v-2zm0-4h1a1.001 1.001 0 0 1 0 2H4v-2zM9 10v8h2v-2h1c1.654 0 3-1.346 3-3s-1.346-3-3-3H9zm4 3c0 .552-.449 1-1 1h-1v-2h1c.551 0 1 .448 1 1z"/></g></symbol><symbol id="print" viewBox="0 0 269 273"><path clip-rule="evenodd" d="M246.63 56.894h-28.854V21.505C217.776 9.528 208.248 0 196.27 0H71.594C59.888 0 50.089 9.8 50.089 21.507v35.389l-28.583-.001C9.8 56.894 0 66.694 0 78.399v123.86c0 11.978 9.528 21.505 21.506 21.505H50.36v27.222c0 11.978 9.527 21.506 21.505 21.506h124.676c11.706 0 21.506-9.8 21.506-21.506l-.001-27.222h28.855c11.706 0 21.506-9.799 21.506-21.505V78.399c-.272-11.977-10.072-21.505-21.778-21.505zM67.239 21.505c0-2.45 1.905-4.627 4.627-4.627h124.676c2.45 0 4.627 2.178 4.627 4.628v35.388H67.238V21.505zm133.659 229.753c0 2.45-1.905 4.627-4.627 4.627l-124.676.001c-2.45 0-4.628-2.178-4.628-4.627v-77.855h133.659v77.855l.272-.001zm50.088-48.999c0 2.45-1.905 4.627-4.627 4.627l-28.583.001v-50.361H50.089v50.361H21.506c-2.45 0-4.627-2.178-4.627-4.627V78.4c0-2.45 2.177-4.627 4.627-4.627H246.63c2.451 0 4.628 2.178 4.628 4.627l-.272 123.859zm-159.792 4.083h85.749c4.627 0 8.438-3.811 8.438-8.438 0-4.628-3.811-8.439-8.438-8.439h-85.75c-4.626 0-8.438 3.811-8.438 8.439 0 4.627 3.539 8.438 8.439 8.438zm85.749 33.483h-85.75c-4.9 0-8.438-3.811-8.438-8.439s3.812-8.439 8.439-8.439l85.749.001c4.627 0 8.438 3.811 8.438 8.438 0 4.628-3.811 8.439-8.438 8.439z"/></symbol><symbol id="search" viewBox="0 0 24 24"><path d="M16.767 15.465a8.243 8.243 0 0 0 1.818-5.173 8.293 8.293 0 1 0-8.293 8.293 8.25 8.25 0 0 0 5.172-1.817L20.697 22 22 20.696l-5.233-5.231zm-6.475 1.277a6.45 6.45 0 1 1 0-12.9 6.45 6.45 0 0 1 0 12.9z"/></symbol><symbol id="tag" viewBox="0 0 24 24"><path d="M21.707 13.293l-11-11A.997.997 0 0 0 10 2H3a1 1 0 0 0-1 1v7c0 .266.105.519.293.707l11 11a.997.997 0 0 0 1.414 0l7-7a.999.999 0 0 0 0-1.414zM7 9a2 2 0 1 1-.001-3.999A2 2 0 0 1 7 9z"/></symbol><symbol id="tiktok" viewBox="0 0 172 196"><path d="M171.916 49.067a49.292 49.292 0 0 1-29.789-9.967c-9.495-7.168-16.349-17.71-18.761-29.823-.613-2.99-.919-6.095-.957-9.277H90.438v87.44l-.038 47.878c0 12.803-8.347 23.652-19.872 27.485-3.37 1.112-6.969 1.648-10.72 1.418-4.825-.268-9.305-1.725-13.249-4.063-8.347-4.983-13.975-14.03-14.128-24.419-.23-16.176 12.827-29.401 28.984-29.401 3.178 0 6.241.536 9.113 1.456v-32.43a61.163 61.163 0 0 0-9.228-.69c-17.689 0-34.23 7.36-46.06 20.623A60.22 60.22 0 0 0 .114 131.524c-1.072 17.595 5.36 34.347 17.843 46.69a65.671 65.671 0 0 0 5.781 5.06C34.422 191.515 47.516 196 61.3 196c3.102 0 6.203-.23 9.228-.69 12.865-1.917 24.734-7.82 34.115-17.097 11.525-11.385 17.881-26.527 17.957-42.627l-.153-71.53c5.475 4.255 11.486 7.743 17.957 10.465 10.032 4.255 20.676 6.363 31.588 6.363V49.029c.038.038-.076.038-.076.038z"/></symbol><symbol id="twitter" viewBox="0 0 195 182"><g clip-path="url(#a)"><path d="M.475 0l75.288 100.384L0 182h17.051l66.33-71.456L136.974 182H195L115.477 75.97 185.996 0h-17.051l-61.087 65.81L58.501 0H.475zM25.55 12.525h26.658L169.92 169.473h-26.657L25.55 12.525z"/></g></symbol><symbol id="whatsapp" viewBox="0 0 24 24"><path d="M.057 24l1.687-6.163a11.867 11.867 0 0 1-1.587-5.946C.16 5.335 5.495 0 12.05 0a11.817 11.817 0 0 1 8.413 3.488 11.824 11.824 0 0 1 3.48 8.414c-.003 6.557-5.338 11.892-11.893 11.892a11.9 11.9 0 0 1-5.688-1.448L.057 24zm6.597-3.807c1.676.995 3.276 1.591 5.392 1.592 5.448 0 9.886-4.434 9.889-9.885.002-5.462-4.415-9.89-9.881-9.892-5.452 0-9.887 4.434-9.889 9.884-.001 2.225.651 3.891 1.746 5.634l-.999 3.648 3.742-.981zm11.387-5.464c-.074-.124-.272-.198-.57-.347-.297-.149-1.758-.868-2.031-.967-.272-.099-.47-.149-.669.149-.198.297-.768.967-.941 1.165-.173.198-.347.223-.644.074-.297-.149-1.255-.462-2.39-1.475-.883-.788-1.48-1.761-1.653-2.059-.173-.297-.018-.458.13-.606.134-.133.297-.347.446-.521.151-.172.2-.296.3-.495.099-.198.05-.372-.025-.521-.075-.148-.669-1.611-.916-2.206-.242-.579-.487-.501-.669-.51l-.57-.01c-.198 0-.52.074-.792.372s-1.04 1.016-1.04 2.479 1.065 2.876 1.213 3.074c.149.198 2.095 3.2 5.076 4.487.709.306 1.263.489 1.694.626.712.226 1.36.194 1.872.118.571-.085 1.758-.719 2.006-1.413.248-.695.248-1.29.173-1.414z"/></symbol><symbol id="xls" viewBox="0 0 24 24"><g><path d="M5.133 3h10v4h4v1h2V5.586L16.547 1H5.133c-1.103 0-2 .898-2 2v5h2V3zM19.133 21h-14v-1h-2v1c0 1.103.897 2 2 2h14c1.103 0 2-.897 2-2v-1h-2v1zM10.133 10v8h5v-2h-3v-6zM18.633 12h3.5v-2h-3.5c-1.378 0-2.5 1.122-2.5 2.5s1.122 2.5 2.5 2.5h1a.5.5 0 0 1 0 1h-3.5v2h3.5c1.378 0 2.5-1.122 2.5-2.5s-1.122-2.5-2.5-2.5h-1a.5.5 0 0 1 0-1zM4.333 18l1.233-2.056L6.8 18h2.333l-2.401-4 2.401-4H6.8l-1.234 2.056L4.333 10H2l2.4 4L2 18z"/></g></symbol><symbol id="youtube" viewBox="0 0 24 24"><path d="M21.807 7.805a2.8 2.8 0 0 0-2.549-2.54A82.512 82.512 0 0 0 12.5 5c-3.452 0-6.059.141-7.743.273a2.8 2.8 0 0 0-2.564 2.542A44.905 44.905 0 0 0 2 12.042c0 1.667.089 3.075.191 4.146a2.799 2.799 0 0 0 2.564 2.539C6.44 18.859 9.047 19 12.5 19c2.867 0 5.19-.136 6.758-.266a2.799 2.799 0 0 0 2.55-2.539C21.91 15.115 22 13.692 22 12s-.09-3.115-.193-4.195zM9.776 14.939V9.06L15.574 12z"/></symbol><symbol id="zip" viewBox="0 0 24 24"><g><path d="M16.414 1H5c-1.103 0-2 .898-2 2v5h2V3h10v4h4v1h2V5.586L16.414 1zM19 21H5v-1H3v1c0 1.103.897 2 2 2h14c1.103 0 2-.897 2-2v-1h-2v1zM10 16v2h4v-2h-1v-4h1v-2h-4v2h1v4zM18 10h-3v8h2v-2h1c1.654 0 3-1.346 3-3s-1.346-3-3-3zm0 4h-1v-2h1a1.001 1.001 0 0 1 0 2zM3.168 16.445A.998.998 0 0 0 4 18h5v-2H5.869l2.963-4.445A.998.998 0 0 0 8 10H3v2h3.131l-2.963 4.445z"/></g></symbol></svg>