<svg width="32" height="32" viewBox="0 0 32 32" fill="none" xmlns="http://www.w3.org/2000/svg">
<g clip-path="url(#clip0_1120_328)">
<circle cx="16" cy="16" r="16" fill="#D63369"/>
<path d="M23.2283 14.1209C22.4428 14.1209 21.9852 14.4185 21.8555 15.0138H20.515C20.5871 14.3253 20.8681 13.8053 21.3582 13.4538C21.8194 13.1311 22.4248 12.9697 23.1743 12.9697C23.9454 12.9697 24.5724 13.149 25.0553 13.5076C25.5597 13.8734 25.812 14.3432 25.812 14.917C25.812 15.2756 25.7147 15.5876 25.5201 15.853C25.3255 16.1112 25.0373 16.3048 24.6553 16.4339C25.0805 16.5774 25.4192 16.7925 25.6715 17.0794C25.9309 17.3592 26.0606 17.6819 26.0606 18.0477C26.0606 18.4135 25.9922 18.7255 25.8552 18.9837C25.7255 19.2419 25.5381 19.4642 25.2931 19.6507C24.7742 20.0452 24.1004 20.2424 23.2716 20.2424C22.4788 20.2424 21.8122 20.0416 21.2717 19.6399C20.6663 19.2024 20.3636 18.6215 20.3636 17.8971H21.7257C21.7474 18.2629 21.8951 18.5498 22.1689 18.7578C22.45 18.9658 22.814 19.0697 23.2608 19.0697C23.7076 19.0697 24.0535 18.9729 24.2986 18.7793C24.5508 18.5784 24.6769 18.3274 24.6769 18.0262C24.6769 17.7178 24.5616 17.4775 24.331 17.3054C24.1076 17.1332 23.7508 17.0472 23.2608 17.0472H22.3311V16.0466H23.1311C23.5418 16.0466 23.8625 15.9606 24.0932 15.7884C24.3238 15.6091 24.4391 15.376 24.4391 15.0891C24.4391 14.8022 24.3382 14.5691 24.1364 14.3898C23.9418 14.2105 23.6391 14.1209 23.2283 14.1209Z" fill="white"/>
<path d="M5.93939 13.0961H6.97941V16.1141H10.2527V13.0961H11.2873V20.0995H10.2527V17.0211H6.97941V20.0995H5.93939V13.0961Z" fill="white"/>
<path d="M15.9079 20.2424C15.2912 20.2424 14.7584 20.0922 14.3095 19.7917C13.8643 19.4875 13.5195 19.0605 13.275 18.5108C13.0305 17.9574 12.9083 17.3088 12.9083 16.5648C12.9083 15.7806 13.0378 15.1227 13.2969 14.5914C13.556 14.0563 13.9118 13.6532 14.3643 13.382C14.8204 13.1071 15.335 12.9697 15.9079 12.9697C16.6779 12.9697 17.2909 13.1621 17.7471 13.5469C18.2032 13.928 18.5061 14.4246 18.6557 15.0366L17.5445 15.251C17.4132 14.8442 17.2052 14.5199 16.9205 14.278C16.6359 14.0325 16.2983 13.9097 15.9079 13.9097C15.5649 13.9097 15.251 14.0087 14.9664 14.2066C14.6818 14.4045 14.4537 14.7013 14.2822 15.0971C14.1107 15.4892 14.0249 15.9785 14.0249 16.5648C14.0249 17.1072 14.0961 17.5836 14.2384 17.9941C14.3807 18.4009 14.5905 18.7179 14.8679 18.9451C15.1452 19.1723 15.4919 19.2859 15.9079 19.2859C16.4151 19.2859 16.8147 19.1503 17.1066 18.8791C17.3986 18.6043 17.5445 18.247 17.5445 17.8072H18.6667C18.6667 18.3203 18.5517 18.7582 18.3218 19.121C18.0956 19.4802 17.7763 19.7568 17.3639 19.9511C16.9516 20.1453 16.4662 20.2424 15.9079 20.2424Z" fill="white"/>
</g>
<defs>
<clipPath id="clip0_1120_328">
<rect width="32" height="32" fill="white"/>
</clipPath>
</defs>
</svg>
