<svg width="496" height="80" viewBox="0 0 496 80" fill="none" xmlns="http://www.w3.org/2000/svg">
<g clip-path="url(#clip0_1120_355)">
<rect x="0.0769043" y="38.3423" width="464.086" height="2.449" fill="#D63369"/>
<path d="M50.6145 58.7848V34.6891C50.6145 31.1289 49.7689 28.4374 48.0777 26.6145C46.4147 24.7632 44.1598 23.8375 41.3129 23.8375C39.058 23.8375 37.085 24.4641 35.3938 25.7173C33.7308 26.9421 32.4342 28.7507 31.504 31.1431C30.6021 33.5071 30.1511 36.3981 30.1511 39.8159H27.276C27.276 34.7746 27.9102 30.5308 29.1786 27.0845C30.4752 23.6382 32.3214 21.0321 34.7173 19.2662C37.1131 17.4718 39.9882 16.5747 43.3424 16.5747C46.612 16.5747 49.3743 17.3152 51.6292 18.7963C53.9123 20.2773 55.6458 22.385 56.8296 25.1192C58.0134 27.825 58.6053 31.015 58.6053 34.6891V58.7848H50.6145ZM22.1179 58.7848V0.382721H30.1511V58.7848H22.1179Z" fill="black"/>
<path d="M89.1994 59.8956C85.5069 59.8956 82.195 59.0839 79.2636 57.4604C76.3604 55.8369 74.0632 53.416 72.372 50.1975C70.6808 46.9791 69.8352 43.0058 69.8352 38.2779C69.8352 33.4644 70.6808 29.4627 72.372 26.2727C74.0632 23.0543 76.3604 20.6333 79.2636 19.0099C82.195 17.3864 85.5069 16.5747 89.1994 16.5747C92.8354 16.5747 96.1051 17.3864 99.0083 19.0099C101.911 20.6333 104.195 23.0543 105.858 26.2727C107.549 29.4627 108.394 33.4644 108.394 38.2779C108.394 43.0058 107.549 46.9791 105.858 50.1975C104.195 53.416 101.911 55.8369 99.0083 57.4604C96.1051 59.0839 92.8354 59.8956 89.1994 59.8956ZM88.9457 52.8036C91.2852 52.8036 93.3005 52.234 94.9917 51.0947C96.7111 49.9554 98.0217 48.3035 98.9237 46.1389C99.8539 43.9457 100.319 41.3254 100.319 38.2779C100.319 33.6068 99.3747 29.9896 97.4862 27.4263C95.6259 24.8629 92.9341 23.5812 89.4108 23.5812C87.0431 23.5812 84.9996 24.1651 83.2802 25.3328C81.589 26.4721 80.2783 28.1383 79.3482 30.3314C78.4462 32.496 77.9952 35.1448 77.9952 38.2779C77.9952 42.8634 78.9395 46.4379 80.828 49.0013C82.7165 51.5362 85.4224 52.8036 88.9457 52.8036Z" fill="black"/>
<path d="M149.295 58.7848V34.6891C149.295 31.1289 148.449 28.4374 146.758 26.6145C145.095 24.7632 142.84 23.8375 139.993 23.8375C137.738 23.8375 135.765 24.4641 134.074 25.7173C132.411 26.9421 131.114 28.7507 130.184 31.1431C129.282 33.5071 128.831 36.3981 128.831 39.8159H125.956C125.956 34.7746 126.591 30.5308 127.859 27.0845C129.155 23.6382 131.002 21.0321 133.398 19.2662C135.793 17.4718 138.668 16.5747 142.023 16.5747C145.292 16.5747 148.055 17.3152 150.309 18.7963C152.593 20.2773 154.326 22.385 155.51 25.1192C156.694 27.825 157.286 31.015 157.286 34.6891V58.7848H149.295ZM120.798 58.7848V17.6855H127.774L128.831 26.5718V58.7848H120.798Z" fill="black"/>
<path d="M187.161 59.8956C183.666 59.8956 180.509 58.9842 177.69 57.1613C174.872 55.3385 172.631 52.8036 170.968 49.5567C169.333 46.3097 168.516 42.5501 168.516 38.2779C168.516 33.7492 169.333 29.8757 170.968 26.6572C172.603 23.4103 174.829 20.9182 177.648 19.1808C180.467 17.4434 183.638 16.5747 187.161 16.5747C190.318 16.5747 193.024 17.2298 195.279 18.5399C197.533 19.8216 199.352 21.559 200.733 23.7521C202.114 25.9167 203.058 28.3804 203.565 31.1431C204.101 33.9059 204.2 36.7541 203.861 39.6877H174.942V34.9882H198.365L196.42 36.2699C196.505 34.7319 196.42 33.1938 196.166 31.6558C195.941 30.1178 195.49 28.7079 194.814 27.4263C194.137 26.1161 193.179 25.0765 191.938 24.3075C190.726 23.51 189.176 23.1113 187.288 23.1113C184.92 23.1113 182.933 23.7094 181.326 24.9056C179.748 26.1019 178.55 27.7111 177.732 29.7333C176.915 31.727 176.506 33.9201 176.506 36.3126V39.6023C176.506 42.2511 176.901 44.6008 177.69 46.6515C178.479 48.7022 179.649 50.3257 181.199 51.5219C182.778 52.6897 184.765 53.2736 187.161 53.2736C189.5 53.2736 191.431 52.7182 192.953 51.6074C194.503 50.4966 195.462 48.8304 195.828 46.6088H204.03C203.608 49.2861 202.635 51.6216 201.113 53.6153C199.591 55.6091 197.632 57.1613 195.236 58.2721C192.869 59.3544 190.177 59.8956 187.161 59.8956Z" fill="black"/>
<path d="M210.119 17.6855H219.125L231.386 51.6928H229.737L239.588 17.6855H247.791L232.359 66.6885C230.949 71.1317 229.131 74.4498 226.904 76.6429C224.706 78.8645 221.944 79.9753 218.618 79.9753C216.757 79.9753 214.968 79.7332 213.248 79.249C211.557 78.7648 209.823 78.0528 208.048 77.1129V69.8073C209.57 70.8896 211.035 71.6729 212.445 72.157C213.854 72.6412 215.32 72.8833 216.842 72.8833C218.364 72.8833 219.661 72.4134 220.732 71.4735C221.831 70.5621 222.747 69.3373 223.48 67.7993C224.241 66.2898 224.889 64.6378 225.425 62.8435L226.651 58.7848L210.119 17.6855Z" fill="black"/>
<path d="M272.097 59.8956C268.771 59.8956 265.67 58.9984 262.795 57.2041C259.92 55.4097 257.609 52.8891 255.862 49.6421C254.114 46.3952 253.24 42.5786 253.24 38.1924C253.24 33.5783 254.114 29.6763 255.862 26.4864C257.609 23.2679 259.92 20.8185 262.795 19.138C265.67 17.4291 268.771 16.5747 272.097 16.5747C274.549 16.5747 276.734 16.9734 278.65 17.7709C280.567 18.5399 282.216 19.5937 283.597 20.9324C284.978 22.2426 286.092 23.7236 286.937 25.3756C287.811 27.0275 288.417 28.7364 288.755 30.5023L280.595 30.9295C280.003 28.7934 278.96 27.0845 277.466 25.8028C276.001 24.4926 274.183 23.8375 272.012 23.8375C270.18 23.8375 268.447 24.3645 266.812 25.4183C265.205 26.4436 263.895 28.0244 262.88 30.1605C261.893 32.2682 261.4 34.9455 261.4 38.1924C261.4 41.2115 261.865 43.7891 262.795 45.9252C263.726 48.0614 264.994 49.6991 266.601 50.8384C268.207 51.9776 270.011 52.5473 272.012 52.5473C274.887 52.5473 277.03 51.8495 278.439 50.4539C279.876 49.0298 280.595 47.0788 280.595 44.6008H288.755C288.755 47.4775 288.093 50.0694 286.768 52.3764C285.443 54.6834 283.527 56.5205 281.018 57.8876C278.538 59.2263 275.564 59.8956 272.097 59.8956Z" fill="black"/>
<path d="M316.701 59.8956C313.008 59.8956 309.696 59.0839 306.765 57.4604C303.862 55.8369 301.565 53.416 299.873 50.1975C298.182 46.9791 297.337 43.0058 297.337 38.2779C297.337 33.4644 298.182 29.4627 299.873 26.2727C301.565 23.0543 303.862 20.6333 306.765 19.0099C309.696 17.3864 313.008 16.5747 316.701 16.5747C320.337 16.5747 323.606 17.3864 326.51 19.0099C329.413 20.6333 331.696 23.0543 333.359 26.2727C335.05 29.4627 335.896 33.4644 335.896 38.2779C335.896 43.0058 335.05 46.9791 333.359 50.1975C331.696 53.416 329.413 55.8369 326.51 57.4604C323.606 59.0839 320.337 59.8956 316.701 59.8956ZM316.447 52.8036C318.787 52.8036 320.802 52.234 322.493 51.0947C324.212 49.9554 325.523 48.3035 326.425 46.1389C327.355 43.9457 327.82 41.3254 327.82 38.2779C327.82 33.6068 326.876 29.9896 324.988 27.4263C323.127 24.8629 320.435 23.5812 316.912 23.5812C314.544 23.5812 312.501 24.1651 310.782 25.3328C309.09 26.4721 307.78 28.1383 306.85 30.3314C305.948 32.496 305.497 35.1448 305.497 38.2779C305.497 42.8634 306.441 46.4379 308.329 49.0013C310.218 51.5362 312.924 52.8036 316.447 52.8036Z" fill="black"/>
<path d="M404.658 58.7848V34.6891C404.658 31.1289 403.813 28.4374 402.122 26.6145C400.459 24.7632 398.218 23.8375 395.399 23.8375C392.017 23.8375 389.396 25.1762 387.535 27.8535C385.703 30.5308 384.787 34.3758 384.787 39.3886H381.278C381.278 35.4297 381.658 32.0118 382.419 29.1352C383.18 26.2585 384.266 23.8945 385.675 22.0432C387.112 20.1919 388.818 18.8247 390.791 17.9418C392.792 17.0304 395.019 16.5747 397.471 16.5747C400.741 16.5747 403.503 17.3152 405.758 18.7963C408.041 20.2773 409.774 22.385 410.958 25.1192C412.142 27.825 412.734 31.015 412.734 34.6891V58.7848H404.658ZM348.3 58.7848V17.6855H355.276L356.164 25.4183C357.46 22.5416 359.236 20.3485 361.491 18.839C363.774 17.3294 366.452 16.5747 369.524 16.5747C372.794 16.5747 375.556 17.3152 377.811 18.7963C380.094 20.2773 381.827 22.385 383.011 25.1192C384.195 27.825 384.787 31.015 384.787 34.6891V58.7848H376.796V34.6891C376.796 31.1289 375.951 28.4374 374.259 26.6145C372.596 24.7632 370.341 23.8375 367.495 23.8375C365.24 23.8375 363.267 24.4641 361.575 25.7173C359.912 26.9421 358.616 28.7507 357.686 31.1431C356.784 33.5071 356.333 36.3981 356.333 39.8159V58.7848H348.3Z" fill="black"/>
<circle cx="464.163" cy="38.3423" r="31.837" fill="#D63369"/>
<path d="M464.751 29.0654C461.903 29.0654 460.245 30.1495 459.774 32.3177H454.916C455.177 29.8099 456.196 27.916 457.972 26.636C459.644 25.4605 461.838 24.8727 464.555 24.8727C467.35 24.8727 469.623 25.5258 471.373 26.8319C473.201 28.1642 474.116 29.8752 474.116 31.9651C474.116 33.2712 473.763 34.4075 473.058 35.3741C472.352 36.3145 471.308 37.0198 469.923 37.49C471.464 38.0125 472.692 38.7961 473.606 39.8411C474.547 40.8598 475.017 42.0354 475.017 43.3676C475.017 44.6999 474.769 45.8362 474.272 46.7766C473.802 47.717 473.123 48.5268 472.235 49.206C470.354 50.6428 467.912 51.3612 464.907 51.3612C462.034 51.3612 459.618 50.6297 457.658 49.1669C455.464 47.5734 454.367 45.4574 454.367 42.819H459.304C459.383 44.1513 459.918 45.1962 460.911 45.9538C461.929 46.7113 463.249 47.0901 464.868 47.0901C466.488 47.0901 467.742 46.7374 468.63 46.0321C469.544 45.3007 470.001 44.3864 470.001 43.2892C470.001 42.166 469.583 41.2909 468.747 40.6639C467.938 40.037 466.645 39.7235 464.868 39.7235H461.498V36.0794H464.398C465.887 36.0794 467.05 35.7659 467.885 35.139C468.721 34.4859 469.139 33.6369 469.139 32.592C469.139 31.5471 468.774 30.6981 468.042 30.045C467.337 29.392 466.24 29.0654 464.751 29.0654Z" fill="white"/>
</g>
<defs>
<clipPath id="clip0_1120_355">
<rect width="496" height="80" fill="white"/>
</clipPath>
</defs>
</svg>
