<svg width="57" height="57" viewBox="0 0 57 57" fill="none" xmlns="http://www.w3.org/2000/svg">
<g clip-path="url(#clip0_1120_320)">
<path fill-rule="evenodd" clip-rule="evenodd" d="M57 28.5C57 44.2401 44.2401 57 28.5 57C12.7599 57 0 44.2401 0 28.5C0 12.7599 12.7599 0 28.5 0C44.2401 0 57 12.7599 57 28.5ZM41.3755 25.1528C39.9762 25.1528 39.1611 25.683 38.93 26.7433H36.5423C36.6707 25.5169 37.1713 24.5906 38.0443 23.9646C38.8658 23.3897 39.9441 23.1023 41.2792 23.1023C42.6528 23.1023 43.7696 23.4217 44.6297 24.0605C45.5283 24.712 45.9776 25.5488 45.9776 26.5709C45.9776 27.2097 45.8043 27.7654 45.4577 28.2381C45.1111 28.698 44.5976 29.043 43.9172 29.2729C44.6746 29.5284 45.278 29.9117 45.7273 30.4227C46.1894 30.921 46.4205 31.4959 46.4205 32.1475C46.4205 32.799 46.2985 33.3548 46.0546 33.8147C45.8235 34.2746 45.4898 34.6707 45.0533 35.0028C44.129 35.7055 42.9288 36.0568 41.4525 36.0568C40.0404 36.0568 38.853 35.6991 37.8902 34.9837C36.8119 34.2043 36.2727 33.1695 36.2727 31.8792H38.6989C38.7375 32.5307 39.0006 33.0418 39.4884 33.4123C39.9891 33.7827 40.6373 33.968 41.4333 33.968C42.2291 33.968 42.8453 33.7955 43.2818 33.4506C43.7311 33.0929 43.9557 32.6457 43.9557 32.1091C43.9557 31.5598 43.7503 31.1318 43.3396 30.8252C42.9416 30.5186 42.3062 30.3653 41.4333 30.3653H39.7773V28.583H41.2022C41.9339 28.583 42.5051 28.4297 42.9159 28.1231C43.3267 27.8037 43.5321 27.3885 43.5321 26.8775C43.5321 26.3665 43.3524 25.9513 42.993 25.6319C42.6464 25.3125 42.1072 25.1528 41.3755 25.1528ZM25.4888 35.2539C26.2883 35.7892 27.2373 36.0568 28.3358 36.0568C29.3304 36.0568 30.1949 35.8838 30.9294 35.5378C31.6639 35.1919 32.2327 34.699 32.6357 34.0593C33.0452 33.413 33.2499 32.6329 33.2499 31.719H31.2511C31.2511 32.5024 30.9911 33.1389 30.4711 33.6284C29.9511 34.1115 29.2394 34.353 28.3358 34.353C27.5948 34.353 26.9773 34.1507 26.4833 33.7459C25.9893 33.3412 25.6156 32.7766 25.3621 32.052C25.1086 31.3208 24.9818 30.4722 24.9818 29.5061C24.9818 28.4616 25.1346 27.5902 25.4401 26.8917C25.7456 26.1867 26.1518 25.6579 26.6588 25.3054C27.1658 24.9529 27.7248 24.7767 28.3358 24.7767C29.0314 24.7767 29.6326 24.9953 30.1396 25.4327C30.6466 25.8636 31.0171 26.4413 31.2511 27.1659L33.2304 26.784C32.9639 25.6938 32.4244 24.8093 31.6119 24.1304C30.7994 23.445 29.7074 23.1023 28.3358 23.1023C27.3153 23.1023 26.3988 23.3471 25.5863 23.8366C24.7803 24.3197 24.1465 25.0378 23.685 25.9908C23.2235 26.9374 22.9928 28.1091 22.9928 29.5061C22.9928 30.8313 23.2105 31.9867 23.646 32.9724C24.0815 33.9516 24.6958 34.7121 25.4888 35.2539ZM12.432 23.3275H10.5795V35.8022H12.432V30.3188H18.2626V35.8022H20.1054V23.3275H18.2626V28.7032H12.432V23.3275Z" fill="black"/>
</g>
<defs>
<clipPath id="clip0_1120_320">
<rect width="57" height="57" fill="white"/>
</clipPath>
</defs>
</svg>
