<svg width="269" height="273" viewBox="0 0 269 273" fill="none" xmlns="http://www.w3.org/2000/svg">
<path fill-rule="evenodd" clip-rule="evenodd" d="M246.63 56.8939H217.776V21.5055C217.776 9.52766 208.248 0 196.27 0L71.594 0.000886075C59.8881 0.000886075 50.0885 9.80053 50.0885 21.5064V56.8948L21.5055 56.8939C9.79965 56.8939 0 66.6936 0 78.3994V202.259C0 214.237 9.52765 223.764 21.5055 223.764H50.3607V250.986C50.3607 262.964 59.8883 272.492 71.8662 272.492H196.542C208.248 272.492 218.048 262.692 218.048 250.986L218.047 223.764H246.902C258.608 223.764 268.408 213.965 268.408 202.259V78.3994C268.136 66.4216 258.336 56.8939 246.63 56.8939ZM67.2387 21.5055C67.2387 19.0553 69.1439 16.8782 71.866 16.8782H196.542C198.992 16.8782 201.169 19.0564 201.169 21.5055V56.8939H67.2378L67.2387 21.5055ZM200.898 251.258C200.898 253.708 198.993 255.885 196.271 255.885L71.5947 255.886C69.1445 255.886 66.9674 253.708 66.9674 251.259L66.9665 173.404H200.626V251.259L200.898 251.258ZM250.986 202.259C250.986 204.709 249.081 206.886 246.359 206.886L217.776 206.887V156.526H50.0894V206.887H21.5064C19.0562 206.887 16.8791 204.709 16.8791 202.26L16.8783 78.4001C16.8783 75.9499 19.0564 73.7728 21.5055 73.7728H246.63C249.081 73.7728 251.258 75.951 251.258 78.4001L250.986 202.259ZM91.1939 206.342H176.943C181.57 206.342 185.381 202.531 185.381 197.904C185.381 193.276 181.57 189.465 176.943 189.465H91.1939C86.5667 189.465 82.7554 193.276 82.7554 197.904C82.7554 202.531 86.2938 206.342 91.1939 206.342ZM176.943 239.825H91.1939C86.2938 239.825 82.7554 236.014 82.7554 231.386C82.7554 226.758 86.5667 222.947 91.1939 222.947L176.943 222.948C181.57 222.948 185.381 226.759 185.381 231.386C185.381 236.014 181.57 239.825 176.943 239.825Z" />
</svg>
