<svg width="172" height="196" viewBox="0 0 172 196" fill="none" xmlns="http://www.w3.org/2000/svg">
<path d="M171.916 49.0671C160.735 49.0671 150.398 45.3487 142.127 39.1003C132.632 31.9319 125.778 21.3902 123.366 9.27674C122.753 6.28672 122.447 3.18169 122.409 0H90.4378V87.4391L90.3995 135.318C90.3995 148.121 82.0527 158.97 70.5278 162.803C67.1585 163.915 63.5593 164.451 59.8071 164.221C54.9827 163.953 50.503 162.496 46.5593 160.158C38.2124 155.175 32.584 146.128 32.4308 135.739C32.2011 119.563 45.2575 106.338 61.4152 106.338C64.5931 106.338 67.6562 106.874 70.5278 107.794V83.9124V75.364C67.503 74.904 64.44 74.674 61.3003 74.674C43.6111 74.674 27.0705 82.034 15.2393 95.2975C6.31813 105.303 0.957747 118.106 0.115401 131.523C-0.956675 149.118 5.47578 165.87 17.9578 178.213C19.7957 180.015 21.7101 181.702 23.7394 183.273C34.4218 191.515 47.5165 196 61.3003 196C64.4017 196 67.503 195.77 70.5278 195.31C83.3927 193.393 95.2622 187.49 104.643 178.213C116.168 166.828 122.524 151.686 122.6 135.586L122.447 64.0555C127.922 68.3106 133.933 71.7989 140.404 74.5206C150.436 78.7757 161.08 80.884 171.992 80.884V57.6538V49.0287C172.03 49.0671 171.916 49.0671 171.916 49.0671Z"/>
</svg>
