<svg width="32" height="32" fill="none" xmlns="http://www.w3.org/2000/svg"><g clip-path="url(#clip0_1120_328)"><circle cx="16" cy="16" r="16" fill="#D63369"/><path d="M23.228 14.12c-.785 0-1.243.299-1.373.894h-1.34c.072-.689.353-1.209.843-1.56.461-.323 1.067-.484 1.816-.484.771 0 1.398.179 1.881.538.505.365.757.835.757 1.409 0 .359-.097.67-.292.936-.194.258-.483.452-.865.58.425.144.764.36 1.017.646.259.28.389.603.389.969s-.069.678-.206.936c-.13.258-.317.48-.562.667-.519.394-1.193.591-2.021.591-.793 0-1.46-.2-2-.602-.606-.438-.908-1.018-.908-1.743h1.362c.021.366.17.653.443.86.281.209.645.313 1.092.313.447 0 .793-.097 1.038-.29.252-.202.378-.453.378-.754 0-.308-.115-.549-.346-.72-.223-.173-.58-.259-1.07-.259h-.93v-1h.8c.41 0 .732-.086.962-.259a.845.845 0 00.346-.699.89.89 0 00-.303-.7c-.194-.178-.497-.268-.908-.268zM5.94 13.096h1.04v3.018h3.273v-3.018h1.034V20.1h-1.034v-3.078H6.979V20.1H5.94v-7.003zm9.968 7.146c-.617 0-1.15-.15-1.598-.45-.446-.305-.79-.732-1.035-1.281-.245-.554-.367-1.202-.367-1.946 0-.784.13-1.442.389-1.974.259-.535.615-.938 1.067-1.209a2.931 2.931 0 011.544-.412c.77 0 1.383.192 1.84.577.455.381.758.878.908 1.49l-1.111.214c-.132-.407-.34-.731-.625-.973a1.5 1.5 0 00-1.012-.368c-.343 0-.657.099-.942.297-.284.197-.512.494-.684.89-.171.392-.257.882-.257 1.468 0 .542.071 1.019.213 1.43.143.406.353.723.63.95.277.227.624.34 1.04.34.507 0 .907-.135 1.199-.406.292-.275.438-.632.438-1.072h1.122c0 .513-.115.951-.345 1.314-.226.36-.546.636-.958.83-.412.194-.898.291-1.456.291z" fill="#fff"/></g><defs><clipPath id="clip0_1120_328"><path fill="#fff" d="M0 0h32v32H0z"/></clipPath></defs></svg>