<svg width="496" height="80" fill="none" xmlns="http://www.w3.org/2000/svg"><g clip-path="url(#clip0_1120_355)"><path fill="#D63369" d="M.077 38.342h464.086v2.449H.077z"/><path d="M50.614 58.785V34.689c0-3.56-.845-6.252-2.536-8.075-1.663-1.85-3.918-2.777-6.765-2.777-2.255 0-4.228.627-5.92 1.88-1.662 1.225-2.959 3.034-3.889 5.426-.902 2.364-1.353 5.255-1.353 8.673h-2.875c0-5.041.634-9.285 1.903-12.732 1.296-3.446 3.142-6.052 5.538-7.818 2.396-1.794 5.271-2.691 8.625-2.691 3.27 0 6.032.74 8.287 2.221 2.283 1.481 4.017 3.589 5.2 6.323 1.184 2.706 1.776 5.896 1.776 9.57v24.096h-7.99zm-28.496 0V.383h8.033v58.402h-8.033zM89.2 59.896c-3.693 0-7.005-.812-9.936-2.436-2.904-1.623-5.2-4.044-6.892-7.263-1.691-3.218-2.537-7.191-2.537-11.92 0-4.813.846-8.814 2.537-12.004 1.691-3.219 3.988-5.64 6.892-7.263 2.931-1.624 6.243-2.435 9.935-2.435 3.636 0 6.906.811 9.81 2.435 2.902 1.623 5.186 4.044 6.849 7.263 1.691 3.19 2.536 7.191 2.536 12.005 0 4.728-.845 8.701-2.536 11.92-1.663 3.218-3.947 5.639-6.85 7.262-2.903 1.624-6.173 2.436-9.809 2.436zm-.254-7.092c2.34 0 4.355-.57 6.046-1.71 1.72-1.139 3.03-2.79 3.932-4.955.93-2.193 1.395-4.814 1.395-7.861 0-4.671-.944-8.288-2.833-10.852-1.86-2.563-4.552-3.845-8.075-3.845-2.368 0-4.411.584-6.13 1.752-1.692 1.14-3.003 2.805-3.933 4.998-.902 2.165-1.353 4.814-1.353 7.947 0 4.585.944 8.16 2.833 10.723 1.888 2.535 4.594 3.803 8.118 3.803zm60.349 5.981V34.689c0-3.56-.846-6.252-2.537-8.075-1.663-1.85-3.918-2.777-6.765-2.777-2.255 0-4.228.627-5.919 1.88-1.663 1.225-2.96 3.034-3.89 5.426-.902 2.364-1.353 5.255-1.353 8.673h-2.875c0-5.041.635-9.285 1.903-12.732 1.296-3.446 3.143-6.052 5.539-7.818 2.395-1.794 5.27-2.691 8.625-2.691 3.269 0 6.032.74 8.286 2.221 2.284 1.481 4.017 3.589 5.201 6.323 1.184 2.706 1.776 5.896 1.776 9.57v24.096h-7.991zm-28.497 0v-41.1h6.976l1.057 8.887v32.213h-8.033zm66.363 1.111c-3.495 0-6.652-.912-9.471-2.735-2.818-1.822-5.059-4.357-6.722-7.604-1.635-3.247-2.452-7.007-2.452-11.28 0-4.528.817-8.401 2.452-11.62 1.635-3.247 3.861-5.739 6.68-7.476 2.819-1.738 5.99-2.606 9.513-2.606 3.157 0 5.863.655 8.118 1.965a15.269 15.269 0 015.454 5.212c1.381 2.165 2.325 4.628 2.832 7.391.536 2.763.635 5.611.296 8.545h-28.919v-4.7h23.423l-1.945 1.282c.085-1.538 0-3.076-.254-4.614-.225-1.538-.676-2.948-1.352-4.23a7.823 7.823 0 00-2.876-3.118c-1.212-.798-2.762-1.197-4.65-1.197-2.368 0-4.355.598-5.962 1.795-1.578 1.196-2.776 2.805-3.594 4.827-.817 1.994-1.226 4.187-1.226 6.58v3.29c0 2.648.395 4.998 1.184 7.048.789 2.051 1.959 3.675 3.509 4.87 1.579 1.169 3.566 1.753 5.962 1.753 2.339 0 4.27-.556 5.792-1.667 1.55-1.11 2.509-2.777 2.875-4.998h8.202c-.422 2.677-1.395 5.013-2.917 7.006-1.522 1.994-3.481 3.546-5.877 4.657-2.367 1.082-5.059 1.624-8.075 1.624zm22.958-42.21h9.006l12.261 34.007h-1.649l9.851-34.007h8.203l-15.432 49.003c-1.41 4.443-3.228 7.76-5.455 9.954-2.198 2.222-4.96 3.332-8.286 3.332-1.861 0-3.65-.242-5.37-.726-1.691-.484-3.425-1.196-5.2-2.136v-7.306c1.522 1.083 2.987 1.866 4.397 2.35 1.409.484 2.875.726 4.397.726 1.522 0 2.819-.47 3.89-1.41 1.099-.91 2.015-2.136 2.748-3.674a30.175 30.175 0 001.945-4.956l1.226-4.058-16.532-41.1zm61.978 42.21c-3.326 0-6.427-.898-9.302-2.692s-5.186-4.315-6.933-7.562c-1.748-3.247-2.622-7.063-2.622-11.45 0-4.614.874-8.516 2.622-11.706 1.747-3.218 4.058-5.668 6.933-7.348 2.875-1.709 5.976-2.563 9.302-2.563 2.452 0 4.637.398 6.553 1.196 1.917.769 3.566 1.823 4.947 3.161a16.367 16.367 0 013.34 4.444 18.254 18.254 0 011.818 5.126l-8.16.428c-.592-2.137-1.635-3.846-3.129-5.127-1.465-1.31-3.283-1.966-5.454-1.966-1.832 0-3.565.527-5.2 1.581-1.607 1.026-2.917 2.606-3.932 4.742-.987 2.108-1.48 4.786-1.48 8.032 0 3.02.465 5.597 1.395 7.733.931 2.136 2.199 3.774 3.806 4.913 1.606 1.14 3.41 1.71 5.411 1.71 2.875 0 5.018-.699 6.427-2.094 1.437-1.424 2.156-3.375 2.156-5.853h8.16c0 2.877-.662 5.468-1.987 7.775-1.325 2.307-3.241 4.145-5.75 5.512-2.48 1.338-5.454 2.008-8.921 2.008zm44.604 0c-3.693 0-7.005-.812-9.936-2.436-2.903-1.623-5.2-4.044-6.892-7.263-1.691-3.218-2.536-7.191-2.536-11.92 0-4.813.845-8.814 2.536-12.004 1.692-3.219 3.989-5.64 6.892-7.263 2.931-1.624 6.243-2.435 9.936-2.435 3.636 0 6.905.811 9.809 2.435 2.903 1.623 5.186 4.044 6.849 7.263 1.691 3.19 2.537 7.191 2.537 12.005 0 4.728-.846 8.701-2.537 11.92-1.663 3.218-3.946 5.639-6.849 7.262-2.904 1.624-6.173 2.436-9.809 2.436zm-.254-7.092c2.34 0 4.355-.57 6.046-1.71 1.719-1.139 3.03-2.79 3.932-4.955.93-2.193 1.395-4.814 1.395-7.861 0-4.671-.944-8.288-2.832-10.852-1.861-2.563-4.553-3.845-8.076-3.845-2.368 0-4.411.584-6.13 1.752-1.692 1.14-3.002 2.805-3.932 4.998-.902 2.165-1.353 4.814-1.353 7.947 0 4.585.944 8.16 2.832 10.723 1.889 2.535 4.595 3.803 8.118 3.803zm88.211 5.981V34.689c0-3.56-.845-6.252-2.536-8.075-1.663-1.85-3.904-2.777-6.723-2.777-3.382 0-6.003 1.34-7.864 4.017-1.832 2.677-2.748 6.522-2.748 11.535h-3.509c0-3.96.38-7.377 1.141-10.254s1.847-5.24 3.256-7.092c1.437-1.851 3.143-3.218 5.116-4.101 2.001-.912 4.228-1.367 6.68-1.367 3.27 0 6.032.74 8.287 2.221 2.283 1.481 4.016 3.589 5.2 6.323 1.184 2.706 1.776 5.896 1.776 9.57v24.096h-8.076zm-56.358 0v-41.1h6.976l.888 7.733c1.296-2.876 3.072-5.07 5.327-6.579 2.283-1.51 4.961-2.264 8.033-2.264 3.27 0 6.032.74 8.287 2.221 2.283 1.481 4.016 3.589 5.2 6.323 1.184 2.706 1.776 5.896 1.776 9.57v24.096h-7.991V34.689c0-3.56-.845-6.252-2.537-8.075-1.663-1.85-3.918-2.777-6.764-2.777-2.255 0-4.228.627-5.92 1.88-1.663 1.225-2.959 3.034-3.889 5.426-.902 2.364-1.353 5.255-1.353 8.673v18.969H348.3z" fill="#000"/><circle cx="464.163" cy="38.342" r="31.837" fill="#D63369"/><path d="M464.751 29.065c-2.848 0-4.506 1.084-4.977 3.253h-4.858c.261-2.508 1.28-4.402 3.056-5.682 1.672-1.175 3.866-1.763 6.583-1.763 2.795 0 5.068.653 6.818 1.959 1.828 1.332 2.743 3.043 2.743 5.133 0 1.306-.353 2.442-1.058 3.41-.706.94-1.75 1.645-3.135 2.115 1.541.523 2.769 1.306 3.683 2.351.941 1.019 1.411 2.194 1.411 3.527 0 1.332-.248 2.468-.745 3.409-.47.94-1.149 1.75-2.037 2.429-1.881 1.437-4.323 2.155-7.328 2.155-2.873 0-5.289-.731-7.249-2.194-2.194-1.594-3.291-3.71-3.291-6.348h4.937c.079 1.332.614 2.377 1.607 3.135 1.018.757 2.338 1.136 3.957 1.136 1.62 0 2.874-.353 3.762-1.058.914-.731 1.371-1.646 1.371-2.743 0-1.123-.418-1.998-1.254-2.625-.809-.627-2.102-.94-3.879-.94h-3.37v-3.645h2.9c1.489 0 2.652-.313 3.487-.94.836-.653 1.254-1.502 1.254-2.547 0-1.045-.365-1.894-1.097-2.547-.705-.653-1.802-.98-3.291-.98z" fill="#fff"/></g><defs><clipPath id="clip0_1120_355"><path fill="#fff" d="M0 0h496v80H0z"/></clipPath></defs></svg>