<svg width="131" height="131" viewBox="0 0 131 131" fill="none" xmlns="http://www.w3.org/2000/svg">
<g clip-path="url(#clip0_1120_329)">
<circle cx="65.5" cy="65.5" r="65.5" fill="#D63369"/>
<path d="M95.091 57.8072C91.8752 57.8072 90.0018 59.0258 89.4707 61.4628H83.9832C84.2782 58.6441 85.4288 56.5153 87.435 55.0766C89.3232 53.7553 91.8015 53.0947 94.8697 53.0947C98.0265 53.0947 100.593 53.8287 102.57 55.2968C104.635 56.7943 105.668 58.7175 105.668 61.0664C105.668 62.5345 105.269 63.8117 104.473 64.8981C103.676 65.9551 102.496 66.7479 100.933 67.2764C102.673 67.8636 104.06 68.7445 105.092 69.9189C106.155 71.064 106.686 72.3853 106.686 73.8828C106.686 75.3802 106.405 76.6574 105.845 77.7145C105.314 78.7715 104.547 79.6817 103.544 80.4451C101.419 82.06 98.6609 82.8674 95.268 82.8674C92.0227 82.8674 89.2937 82.0453 87.081 80.401C84.6028 78.61 83.3636 76.2317 83.3636 73.2662H88.9397C89.0282 74.7636 89.633 75.9381 90.7541 76.7896C91.9047 77.641 93.3946 78.0668 95.2238 78.0668C97.053 78.0668 98.4691 77.6704 99.4722 76.8776C100.505 76.0555 101.021 75.0279 101.021 73.7947C101.021 72.5321 100.549 71.5485 99.6049 70.8438C98.6904 70.1391 97.23 69.7868 95.2238 69.7868H91.4179V65.6908H94.6927C96.3744 65.6908 97.6873 65.3385 98.6314 64.6338C99.5754 63.8998 100.047 62.9455 100.047 61.7711C100.047 60.5966 99.6344 59.6423 98.8084 58.9083C98.0118 58.1743 96.7727 57.8072 95.091 57.8072Z" fill="white"/>
<path d="M24.3143 53.6123H28.5719V65.967H41.972V53.6123H46.2072V82.2823H41.972V69.6801H28.5719V82.2823H24.3143V53.6123Z" fill="white"/>
<path d="M65.1229 82.8674C62.5982 82.8674 60.4171 82.2523 58.5797 81.0221C56.7571 79.7769 55.3454 78.0291 54.3445 75.7787C53.3436 73.5133 52.8431 70.8578 52.8431 67.8123C52.8431 64.6017 53.3735 61.9087 54.4341 59.7334C55.4948 57.543 56.9513 55.8927 58.8037 54.7825C60.6711 53.6573 62.7775 53.0947 65.1229 53.0947C68.2749 53.0947 70.7847 53.8823 72.652 55.4576C74.5194 57.0179 75.7593 59.0507 76.3718 61.5562L71.8229 62.4338C71.2851 60.7685 70.4336 59.4408 69.2684 58.4506C68.1032 57.4455 66.7213 56.9429 65.1229 56.9429C63.7186 56.9429 62.4339 57.3479 61.2686 58.1581C60.1034 58.9682 59.1697 60.1834 58.4676 61.8037C57.7655 63.409 57.4144 65.4119 57.4144 67.8123C57.4144 70.0327 57.7057 71.983 58.2883 73.6633C58.871 75.3286 59.7299 76.6263 60.8653 77.5565C62.0006 78.4867 63.4198 78.9517 65.1229 78.9517C67.1994 78.9517 68.8352 78.3966 70.0303 77.2864C71.2254 76.1612 71.8229 74.6985 71.8229 72.8982H76.4166C76.4166 74.9985 75.946 76.7914 75.0049 78.2766C74.0787 79.7469 72.7715 80.8796 71.0834 81.6747C69.3954 82.4699 67.4085 82.8674 65.1229 82.8674Z" fill="white"/>
</g>
<defs>
<clipPath id="clip0_1120_329">
<rect width="131" height="131" fill="white"/>
</clipPath>
</defs>
</svg>
