<svg width="57" height="57" fill="none" xmlns="http://www.w3.org/2000/svg"><g clip-path="url(#clip0_1120_320)"><path fill-rule="evenodd" clip-rule="evenodd" d="M57 28.5C57 44.24 44.24 57 28.5 57S0 44.24 0 28.5 12.76 0 28.5 0 57 12.76 57 28.5zm-15.624-3.347c-1.4 0-2.215.53-2.446 1.59h-2.388c.129-1.226.63-2.152 1.502-2.778.822-.575 1.9-.863 3.235-.863 1.374 0 2.49.32 3.35.959.9.651 1.349 1.488 1.349 2.51 0 .639-.174 1.194-.52 1.667-.347.46-.86.805-1.54 1.035.757.255 1.36.639 1.81 1.15.461.498.692 1.073.692 1.725 0 .651-.122 1.207-.365 1.667-.231.46-.565.856-1.002 1.188-.924.703-2.124 1.054-3.6 1.054-1.413 0-2.6-.358-3.563-1.073-1.078-.78-1.617-1.815-1.617-3.105h2.426c.038.652.302 1.163.79 1.533.5.37 1.148.556 1.944.556s1.412-.173 1.849-.517c.45-.358.674-.805.674-1.342 0-.55-.206-.977-.616-1.284-.398-.306-1.034-.46-1.907-.46h-1.656v-1.782h1.425c.732 0 1.303-.153 1.714-.46.41-.32.616-.735.616-1.245 0-.512-.18-.927-.539-1.246-.347-.32-.886-.48-1.617-.48zm-15.887 10.1c.8.536 1.748.804 2.847.804.994 0 1.859-.173 2.593-.52.735-.345 1.304-.838 1.707-1.478.41-.646.614-1.426.614-2.34h-2c0 .783-.26 1.42-.78 1.91-.52.483-1.232.724-2.135.724-.741 0-1.359-.202-1.853-.607-.494-.405-.867-.97-1.12-1.694-.254-.731-.381-1.58-.381-2.546 0-1.044.153-1.916.458-2.614.306-.705.712-1.234 1.219-1.587a2.874 2.874 0 011.677-.528c.695 0 1.297.218 1.804.656.507.43.877 1.008 1.111 1.733l1.98-.382c-.267-1.09-.807-1.975-1.62-2.654-.812-.685-1.904-1.028-3.275-1.028-1.02 0-1.937.245-2.75.735-.806.483-1.44 1.2-1.901 2.154-.461.946-.692 2.118-.692 3.515 0 1.325.218 2.48.653 3.466.435.98 1.05 1.74 1.843 2.282zM12.432 23.329h-1.853v12.474h1.853V30.32h5.83v5.483h1.843V23.328h-1.842v5.375h-5.831v-5.375z" fill="#000"/></g><defs><clipPath id="clip0_1120_320"><path fill="#fff" d="M0 0h57v57H0z"/></clipPath></defs></svg>