<svg width="24" height="24" viewBox="0 0 24 24" xmlns="http://www.w3.org/2000/svg">
    <path d="M20 7.537a6.47 6.47 0 0 1-1.884.516 3.3 3.3 0 0 0 1.443-1.816 6.604 6.604 0 0 1-2.084.797A3.282 3.282 0 0 0 15.078 6a3.28 3.28 0 0 0-3.196 4.028 9.316 9.316 0 0 1-6.764-3.43 3.279 3.279 0 0 0-.444 1.65c0 1.136.578 2.142 1.46 2.73a3.282 3.282 0 0 1-1.488-.41v.041a3.282 3.282 0 0 0 2.634 3.218 3.286 3.286 0 0 1-1.483.056 3.294 3.294 0 0 0 3.065 2.281A6.584 6.584 0 0 1 4 17.524a9.282 9.282 0 0 0 5.034 1.474c6.036 0 9.338-5.002 9.338-9.339 0-.143-.003-.284-.01-.425A6.607 6.607 0 0 0 20 7.538z"/>
</svg>
